# xmcd
#
# Track frame offsets: 
#        150
#        22547
#        38942
#        57555
#        76857
#        95515
#        120670
#        135860
#        148922
#        164802
#        191277
#        210970
#
# Disc length: 3053 seconds
#
# Revision: 39
# Processed by: cddbd v1.5.2PL0 Copyright (c) Steve Scherf et al.
# Submitted via: ExactAudioCopy v1.1
#
DISCID=990beb0c
DTITLE=Bruce Springsteen - Devils and Dust
DYEAR=2005
DGENRE=Rock
TTITLE0=Devils and Dust
TTITLE1=All the Way Home
TTITLE2=Reno
TTITLE3=Long Time Comin'
TTITLE4=Black Cowboys
TTITLE5=Maria's Bed
TTITLE6=Silver Palomino
TTITLE7=Jesus Was An Only Son
TTITLE8=Leah
TTITLE9=The Hitter
TTITLE10=All I'm Thinkin' About
TTITLE11=Matamoros Banks
EXTD=
EXTT0=
EXTT1=
EXTT2=
EXTT3=
EXTT4=
EXTT5=
EXTT6=
EXTT7=
EXTT8=
EXTT9=
EXTT10=
EXTT11=
PLAYORDER=
